<svg width="27" height="35" viewBox="0 0 27 35" fill="none" xmlns="http://www.w3.org/2000/svg">
<path d="M0.4375 35V0.875H10.9375C13.9375 0.875 16.6172 1.55469 18.9766 2.91406C21.3516 4.25781 23.2031 6.17969 24.5312 8.67969C25.8594 11.1641 26.5234 13.9922 26.5234 17.1641V18.7344C26.5234 21.9062 25.8672 24.7266 24.5547 27.1953C23.2578 29.6641 21.4219 31.5781 19.0469 32.9375C16.6719 34.2969 13.9922 34.9844 11.0078 35H0.4375ZM7.46875 6.57031V29.3516H10.8672C13.6172 29.3516 15.7188 28.4531 17.1719 26.6562C18.625 24.8594 19.3672 22.2891 19.3984 18.9453V17.1406C19.3984 13.6719 18.6797 11.0469 17.2422 9.26562C15.8047 7.46875 13.7031 6.57031 10.9375 6.57031H7.46875Z" fill="url(#paint0_diamond)"/>
<defs>
<radialGradient id="paint0_diamond" cx="0" cy="0" r="1" gradientUnits="userSpaceOnUse" gradientTransform="translate(12.2424 16.8929) rotate(88.0754) scale(45.1147 45.0815)">
<stop stop-color="#FFD458" stop-opacity="0.78"/>
<stop offset="1" stop-color="#F9BF2E"/>
</radialGradient>
</defs>
</svg>
