<svg width="27" height="35" viewBox="0 0 27 35" fill="none" xmlns="http://www.w3.org/2000/svg">
<path d="M7.58594 22.9766V35H0.554688V0.875H13.8672C16.4297 0.875 18.6797 1.34375 20.6172 2.28125C22.5703 3.21875 24.0703 4.55469 25.1172 6.28906C26.1641 8.00781 26.6875 9.96875 26.6875 12.1719C26.6875 15.5156 25.5391 18.1562 23.2422 20.0938C20.9609 22.0156 17.7969 22.9766 13.75 22.9766H7.58594ZM7.58594 17.2812H13.8672C15.7266 17.2812 17.1406 16.8438 18.1094 15.9688C19.0938 15.0938 19.5859 13.8438 19.5859 12.2188C19.5859 10.5469 19.0938 9.19531 18.1094 8.16406C17.125 7.13281 15.7656 6.60156 14.0312 6.57031H7.58594V17.2812Z" fill="url(#paint0_diamond)"/>
<defs>
<radialGradient id="paint0_diamond" cx="0" cy="0" r="1" gradientUnits="userSpaceOnUse" gradientTransform="translate(12.2424 16.8929) rotate(88.0754) scale(45.1147 45.0815)">
<stop stop-color="#FFD458" stop-opacity="0.78"/>
<stop offset="1" stop-color="#F9BF2E"/>
</radialGradient>
</defs>
</svg>
