<svg width="27" height="35" viewBox="0 0 27 35" fill="none" xmlns="http://www.w3.org/2000/svg">
<path d="M0.71875 35V0.875H12.6719C16.8125 0.875 19.9531 1.67188 22.0938 3.26562C24.2344 4.84375 25.3047 7.16406 25.3047 10.2266C25.3047 11.8984 24.875 13.375 24.0156 14.6562C23.1562 15.9219 21.9609 16.8516 20.4297 17.4453C22.1797 17.8828 23.5547 18.7656 24.5547 20.0938C25.5703 21.4219 26.0781 23.0469 26.0781 24.9688C26.0781 28.25 25.0312 30.7344 22.9375 32.4219C20.8438 34.1094 17.8594 34.9688 13.9844 35H0.71875ZM7.75 20.1406V29.3516H13.7734C15.4297 29.3516 16.7188 28.9609 17.6406 28.1797C18.5781 27.3828 19.0469 26.2891 19.0469 24.8984C19.0469 21.7734 17.4297 20.1875 14.1953 20.1406H7.75ZM7.75 15.1719H12.9531C16.5 15.1094 18.2734 13.6953 18.2734 10.9297C18.2734 9.38281 17.8203 8.27344 16.9141 7.60156C16.0234 6.91406 14.6094 6.57031 12.6719 6.57031H7.75V15.1719Z" fill="url(#paint0_diamond)"/>
<defs>
<radialGradient id="paint0_diamond" cx="0" cy="0" r="1" gradientUnits="userSpaceOnUse" gradientTransform="translate(12.2424 16.8929) rotate(88.0754) scale(45.1147 45.0815)">
<stop stop-color="#FFD458" stop-opacity="0.78"/>
<stop offset="1" stop-color="#F9BF2E"/>
</radialGradient>
</defs>
</svg>
