<svg width="74" height="89" viewBox="0 0 74 89" fill="none" xmlns="http://www.w3.org/2000/svg">
<path d="M50.5117 78.741C50.5117 78.741 49.6078 70.1532 48.8547 65.7843C48.8547 65.7843 48.1768 61.4904 47.8757 60.4355C47.5747 59.3805 47.8007 57.7236 47.8757 56.2926C47.9508 54.8616 47.0468 54.1836 47.1227 50.4918C47.1987 46.7999 45.5408 47.0268 45.1638 41.678C44.7869 36.3292 44.1848 33.6172 44.0338 31.2072C43.8829 28.7963 44.2598 27.5163 44.7118 25.2564C45.1638 22.9964 45.6158 20.8875 45.6158 19.7575C45.6158 19.7575 45.6158 18.0246 45.4648 16.5936C45.3139 15.1626 46.4854 13.5047 47.2556 11.4707C48.0258 9.4368 48.5528 7.32783 49.3067 5.8209C50.0597 4.31397 50.1357 1 51.7176 1C53.2996 1 54.8815 1.97901 53.1486 8.4578C53.1486 8.4578 52.5457 10.1148 52.3197 10.3408C52.0937 10.5668 51.6417 14.9357 51.4907 16.5176C51.3398 18.0996 51.4157 21.7155 51.7918 22.3935" stroke="#F9BF2E" stroke-miterlimit="10" stroke-linecap="round" stroke-linejoin="round"/>
<path d="M67.6879 16.1405C67.6879 16.1405 68.215 14.7845 70.1739 14.7845C70.1739 14.7845 72.6598 14.6336 72.6598 19.0784C72.6598 23.5233 72.8108 24.5023 72.6598 26.6113C72.5089 28.7202 72.5848 31.4322 73.1118 33.0901C73.6388 34.7479 72.1328 38.2129 71.7558 39.8699C71.3789 41.5269 71.0779 45.5197 67.6879 48.5327C64.298 51.5456 64.8251 55.0115 64.8251 58.0244C64.8251 61.0374 66.0301 68.1191 66.784 70.7551C67.537 73.392 69.8729 80.9999 69.8729 80.9999" stroke="#F9BF2E" stroke-miterlimit="10" stroke-linecap="round" stroke-linejoin="round"/>
<path d="M65.6451 16.8539C65.6451 16.8539 68.0642 14.9357 69.4201 18.3256C70.7761 21.7155 70.3241 22.9964 70.3241 24.5784C70.3241 26.1603 70.0981 30.0772 69.5711 31.1322C69.0441 32.1871 68.9682 35.4261 66.3322 36.029H64.7954" stroke="#F9BF2E" stroke-miterlimit="10" stroke-linecap="round" stroke-linejoin="round"/>
<path d="M51.4829 20.5161C51.4829 20.5161 52.4701 20.0587 54.278 19.4557C56.086 18.8528 60.0788 17.2708 61.3588 16.8188C62.6389 16.3669 65.6527 15.6943 66.4057 18.6675C67.1588 21.6406 66.9328 23.1467 67.0837 25.3316C67.2347 27.5165 67.4607 30.0774 66.4808 32.2624C65.5018 34.4473 64.7478 35.7273 64.3718 37.3093C63.9948 38.8912 62.0368 38.6652 62.0368 38.6652" stroke="#F9BF2E" stroke-miterlimit="10" stroke-linecap="round" stroke-linejoin="round"/>
<path d="M51.6758 22.0499C51.6758 22.0499 55.0883 20.2464 57.8572 20.6984C60.6251 21.1504 62.603 20.5285 63.1111 22.5064C63.62 24.4843 63.9021 28.1002 64.411 29.5122C64.919 30.9242 65.089 32.6761 64.128 34.3141C63.168 35.9521 61.7551 39.06 61.7551 39.06C61.7551 39.06 61.0771 40.3029 60.0602 40.19C59.0432 40.077 57.2352 39.06 58.5912 34.8221C58.5912 34.8221 59.3261 32.6752 59.8342 32.9012" stroke="#F9BF2E" stroke-miterlimit="10" stroke-linecap="round" stroke-linejoin="round"/>
<path d="M52.5459 23.5234C52.5459 23.5234 55.9919 28.2693 56.8398 28.3823C57.6868 28.4953 57.6868 28.4953 57.6868 28.4953" stroke="#F9BF2E" stroke-miterlimit="10" stroke-linecap="round" stroke-linejoin="round"/>
<path d="M57.9703 26.0093C57.9703 26.0093 57.8004 31.2505 59.5523 32.9798" stroke="#F9BF2E" stroke-miterlimit="10" stroke-linecap="round" stroke-linejoin="round"/>
<path d="M58.1922 29.4949C58.1922 29.4949 57.0658 30.746 54.2979 30.4115" stroke="#F9BF2E" stroke-miterlimit="10" stroke-linecap="round" stroke-linejoin="round"/>
<path d="M27.832 47.5625H33.6914V67.25C33.6914 69.0599 33.2878 70.6615 32.4805 72.0547C31.6862 73.4349 30.5599 74.5026 29.1016 75.2578C27.6432 76.013 25.9961 76.3906 24.1602 76.3906C21.1523 76.3906 18.8086 75.6289 17.1289 74.1055C15.4492 72.569 14.6094 70.401 14.6094 67.6016H20.5078C20.5078 68.9948 20.8008 70.0234 21.3867 70.6875C21.9727 71.3516 22.8971 71.6836 24.1602 71.6836C25.2799 71.6836 26.1719 71.2995 26.8359 70.5312C27.5 69.763 27.832 68.6693 27.832 67.25V47.5625Z" fill="url(#paint0_diamond)"/>
<path d="M23.1569 5.47829C23.0628 5.21868 22.7761 5.08451 22.5165 5.17861L18.2858 6.71215C18.0262 6.80625 17.8921 7.093 17.9862 7.35261C18.0803 7.61223 18.367 7.7464 18.6266 7.65229L22.3872 6.28915L23.7503 10.0497C23.8444 10.3093 24.1312 10.4435 24.3908 10.3494C24.6504 10.2553 24.7846 9.96854 24.6905 9.70893L23.1569 5.47829ZM38.6117 42.581C38.7608 42.3486 38.6933 42.0393 38.4609 41.8902L34.6733 39.4603C34.4409 39.3112 34.1316 39.3787 33.9825 39.6111C33.8334 39.8435 33.9009 40.1528 34.1333 40.302L37.5001 42.4619L35.3402 45.8286C35.191 46.061 35.2586 46.3703 35.491 46.5194C35.7234 46.6685 36.0327 46.601 36.1818 46.3685L38.6117 42.581ZM22.234 5.43678C22.0226 5.88865 21.8115 6.35259 21.6017 6.8273L22.5163 7.23151C22.7233 6.76331 22.9314 6.3059 23.1397 5.86059L22.234 5.43678ZM20.4251 9.64494C20.0586 10.5751 19.7025 11.5329 19.3627 12.5105L20.3072 12.8389C20.6425 11.8745 20.9938 10.9294 21.3555 10.0115L20.4251 9.64494ZM18.4198 15.421C18.1274 16.3955 17.8556 17.3816 17.6095 18.3721L18.58 18.6132C18.822 17.6392 19.0896 16.6685 19.3776 15.7083L18.4198 15.421ZM16.951 21.3655C16.7577 22.3816 16.597 23.3953 16.4748 24.3989L17.4675 24.5198C17.5867 23.5402 17.7438 22.5486 17.9334 21.5524L16.951 21.3655ZM16.226 27.4654C16.1866 28.5175 16.1992 29.5499 16.2715 30.5526L17.2689 30.4806C17.1995 29.5185 17.1871 28.5229 17.2253 27.5027L16.226 27.4654ZM16.712 33.6283C16.9462 34.6753 17.2675 35.6731 17.6881 36.6062L18.5997 36.1953C18.2105 35.3316 17.9092 34.3993 17.6878 33.41L16.712 33.6283ZM19.3418 39.296C20.003 40.1011 20.781 40.8161 21.6861 41.4242L22.2438 40.5941C21.4209 40.0412 20.7151 39.3925 20.1146 38.6613L19.3418 39.296ZM24.5127 42.8175C25.4395 43.1387 26.4523 43.3792 27.5559 43.5324L27.6934 42.5419C26.6485 42.3968 25.6998 42.1705 24.8401 41.8726L24.5127 42.8175ZM30.662 43.73C31.6289 43.7267 32.652 43.6692 33.7337 43.5544L33.6281 42.56C32.5773 42.6716 31.5884 42.7269 30.6586 42.73L30.662 43.73ZM36.765 43.1088C37.265 43.0165 37.7757 42.9134 38.2976 42.7995L38.0842 41.8225C37.5725 41.9342 37.0723 42.0351 36.5834 42.1255L36.765 43.1088Z" fill="#F9BF2E"/>
<defs>
<radialGradient id="paint0_diamond" cx="0" cy="0" r="1" gradientUnits="userSpaceOnUse" gradientTransform="translate(24.2424 64.8929) rotate(88.0754) scale(45.1147 45.0815)">
<stop stop-color="#FFD458" stop-opacity="0.78"/>
<stop offset="1" stop-color="#F9BF2E"/>
</radialGradient>
</defs>
</svg>
